<svg xmlns="http://www.w3.org/2000/svg" viewBox="0 0 1200 720" role="img" aria-labelledby="title desc">
<title id="title">LAUREM Care wellbeing and development</title>
<desc id="desc">A LAUREM Care worker reviewing a tablet with a colleague.</desc>
<rect width="1200" height="720" rx="42" fill="#eef7f3"/>
<circle cx="1050" cy="130" r="90" fill="#c4e4d9"/>
<rect x="125" y="105" width="950" height="510" rx="38" fill="#fff" stroke="#c6ded5" stroke-width="5"/>
<circle cx="390" cy="267" r="72" fill="#966950"/>
<path d="M330 264c8-69 112-89 142-17-29-17-70-22-101 4z" fill="#2d463e"/>
<path d="M285 580c0-160 46-221 105-221s105 61 105 221z" fill="#2b6c5b"/>
<rect x="340" y="398" width="100" height="72" rx="13" fill="#245e4f"/>
<rect x="352" y="411" width="76" height="26" rx="8" fill="#f0faf7"/>
<text x="390" y="429" text-anchor="middle" font-family="Arial" font-size="12" font-weight="800" fill="#18372f">LAUREM CARE</text>
<circle cx="730" cy="257" r="71" fill="#7b5644"/>
<path d="M671 254c8-71 103-92 137-17-31-16-69-20-102 3z" fill="#443d38"/>
<path d="M625 580c0-151 46-212 105-212s105 61 105 212z" fill="#2c6d5c"/>
<rect x="681" y="394" width="98" height="69" rx="13" fill="#245e4f"/>
<rect x="692" y="407" width="76" height="26" rx="8" fill="#f0faf7"/>
<text x="730" y="425" text-anchor="middle" font-family="Arial" font-size="12" font-weight="800" fill="#18372f">LAUREM CARE</text>
<rect x="505" y="285" width="190" height="138" rx="20" fill="#18372f"/>
<rect x="522" y="302" width="156" height="104" rx="12" fill="#d9efe7"/>
<path d="M545 380h105M545 351h75M545 326h112" stroke="#6eaa98" stroke-width="12" stroke-linecap="round"/>
<text x="180" y="170" font-family="Arial" font-size="25" font-weight="800" fill="#18372f">WELLBEING + DEVELOPMENT</text>
</svg>